<svg id="Layer_1" enable-background="new 0 0 512.01 512.01" height="512" viewBox="0 0 512.01 512.01" width="512" xmlns="http://www.w3.org/2000/svg"><g><path d="m119.051 43.005-99.918 72v170.808l236.872 178.805 241.851-187.98v-164.697l-121.933-64.341-100.961 65.107z" fill="#fe7cb8"/><path d="m375.923 47.6-100.961 65.107-18.957-8.475v360.386l241.851-187.98v-164.697z" fill="#ff3a80"/><path d="m91.643 155.09v96.398l160.851 118.581 170.043-125.617v-89.362l-44.936-26.553-121.596 69.446-117.894-69.446z" fill="#f9bbde"/><path d="m504.665 101.062-118.826-70.51c-4.636-2.751-10.392-2.802-15.076-.136l-114.758 65.332-115.55-65.783c-4.711-2.682-10.504-2.614-15.15.18l-118.034 70.961c-4.512 2.713-7.271 7.592-7.271 12.856l.005 170.048c0 4.662 2.168 9.06 5.866 11.898l241 185c2.694 2.067 5.913 3.102 9.134 3.102 3.213 0 6.428-1.03 9.118-3.09l241.005-184.503c3.708-2.838 5.882-7.241 5.882-11.91v-170.545c0-5.295-2.792-10.198-7.345-12.9zm-81.015 37.975-30.645-18.184v-51.164l74.347 44.116zm-167.572 217.83-152.075-116.738-.002-75.829 30.257-18.19 114.326 65.087c4.602 2.619 10.241 2.619 14.843 0l113.831-64.805 30.752 18.248v75.916zm106.927-236.883-92 52.376v-50.631l92-52.376zm-122 52.377-91.954-52.35v-50.632l91.954 52.35zm-121.954-52.114-30.204 18.159-43.561-25.15 73.766-44.348v51.339zm-89.05 18.825 44.001 25.403.002 73.658-43.999 25.403zm57.278 126.038 153.726 118.006v55.469l-194.968-149.664zm183.726 118.111 154.721-118.448 41.264 23.824-195.985 150.038zm167.005-145.997v-71.838l44-25.403v122.644z" fill="#e50058"/><path d="m377.601 128.537-121.596 69.446v169.492l166.532-123.023v-89.362z" fill="#fe7cb8"/><path d="m504.665 101.062-118.826-70.51c-4.636-2.751-10.392-2.802-15.076-.136l-114.758 65.332v117.412c2.56 0 5.121-.655 7.421-1.964l113.831-64.805 30.752 18.248v75.916l-151.931 116.312-.073-.056v127.199c3.213 0 6.428-1.03 9.118-3.09l241.005-184.503c3.708-2.838 5.882-7.241 5.882-11.91v-170.545c0-5.295-2.792-10.198-7.345-12.9zm-141.66 18.922-92 52.376v-50.631l92-52.376zm30 .868v-51.163l74.347 44.116-43.703 25.231zm-122 317.783v-55.414l154.721-118.448 41.264 23.824zm211.005-176.007-44-25.404v-71.838l44-25.403z" fill="#b40042"/></g></svg>